<?xml version="1.0" encoding="iso-8859-1"?>
<!-- Generator: Adobe Illustrator 19.0.0, SVG Export Plug-In . SVG Version: 6.00 Build 0)  -->
<svg version="1.1" id="Capa_1" xmlns="http://www.w3.org/2000/svg" xmlns:xlink="http://www.w3.org/1999/xlink" x="0px" y="0px"
	 viewBox="0 0 512 512" style="enable-background:new 0 0 512 512;" xml:space="preserve">
<g>
	<polygon style="fill:#554432;" points="154.03,93.849 0.082,183.314 0,211.88 357.971,418.553 511.92,329.088 512,300.523 	"/>
	<polygon style="fill:#554432;" points="512,300.523 511.92,329.088 357.97,418.553 358.051,389.988 	"/>
</g>
<polygon style="fill:#5E4C36;" points="358.051,389.988 357.97,418.553 0,211.88 0.082,183.314 "/>
<polygon style="fill:#806749;" points="512,300.523 358.051,389.988 0.082,183.314 154.03,93.849 "/>
<polygon style="fill:#957755;" points="511.418,303.312 501.18,304.675 504.621,316.155 495.679,314.94 489.5,318.472 
	479.831,316.94 474.72,323.072 471.363,329.059 458.54,328.715 459.363,337.471 449.023,339.863 440.475,333.316 440.669,347.828 
	430.702,344.851 430.04,357.872 418.342,351.918 409.971,351.679 403.224,354.243 405.245,371.898 395.779,370.087 392.448,378.238 
	379.799,370.654 377.19,380.339 375.416,391.474 361.304,381.387 358.103,397.689 351.74,386.914 350.122,375.706 336.979,384.461 
	337.431,369.675 325.77,375.865 320.338,371.268 320.34,357.257 309.372,362.242 306.272,353.606 297.124,355.444 287.687,357.783 
	286.531,345.771 281.238,340.931 274.107,339.276 266.235,338.903 261.172,333.659 259.347,322.809 253.538,318.864 
	243.083,322.961 231.97,328.199 228.098,320.907 221.317,318.655 216.864,312.373 208.439,312.967 208.936,298.094 201.144,297.582 
	196.413,291.776 183.542,300.067 185.09,283.383 175.12,286.634 165.558,289.19 166.641,273.311 153.979,281.232 154.531,266.262 
	150.416,259.382 137.855,267.129 135.981,257.368 126.615,258.573 117.584,255.324 118.309,244.933 107.364,250.652 
	101.587,241.919 92.611,247.393 94.756,229.664 89.771,224.282 74.921,235.981 76.666,218.939 64.5,226.006 62.193,215.985 
	54.184,215.847 45.941,216.108 41.559,209.676 34.744,207.457 33.702,202.726 23.555,199.938 13.547,202.101 11.265,192.025 
	2.938,192.405 0.623,183.32 11.144,179.692 11.875,170.931 20.839,171.251 20.031,167.738 29.656,163.367 32.513,154.115 
	41.598,155.576 48.642,153.527 54.068,148.689 62.568,149.143 65.856,140.627 76.832,145.337 82.76,141.364 87.197,134.837 
	96.026,135.854 93.584,117.486 105.868,124.452 114.83,125.695 114.331,110.657 126.814,117.957 126.97,104.042 133.754,101.541 
	146.051,108.513 146.16,94.504 154.042,95.601 159.268,98.783 170.437,93.447 172.317,104.201 182.48,100.604 181.031,117.116 
	191.914,112.272 198.662,114.594 202.328,122.255 207.979,126.475 219.137,121.154 217.857,137.38 224.162,140.47 237.192,131.911 
	237.839,144.797 241.973,151.644 250.132,151.525 255.551,156.148 266.142,151.812 264.701,168.318 277.404,160.328 
	285.137,160.931 284.125,176.681 294.665,172.42 299.594,177.884 301.244,189.038 313.669,181.523 321.739,181.547 326.249,187.737 
	334.322,187.759 333.983,202.361 345.714,196.05 343.612,213.694 355.518,207.08 358.26,216.346 366.779,215.596 370.908,222.455 
	380.083,220.58 387.66,221.465 395.594,221.737 395.389,235.37 402.398,236.148 405.902,244.325 415.83,241.919 419.651,250.145 
	426.754,251.862 436.039,249.798 438.887,258.886 449.446,254.602 447.774,271.516 457.733,268.274 458.319,281.276 
	471.943,271.701 476.408,277.992 486.265,274.941 485.72,289.101 495.843,290.56 498.284,296.198 503.834,295.808 "/>
<g>
	<polyline style="fill:#554432;" points="178.954,181.477 171.013,176.891 136.532,185.631 143.151,177.216 162.947,172.306 
		156.191,168.406 142.691,172.2 149.251,164.399 142.502,160.503 134.145,172.018 119.585,175.846 134.553,155.842 126.673,151.293 
		107.752,178.084 114.63,182.055 134.493,176.963 125.823,188.517 132.708,192.493 178.954,181.477 	"/>
	<path style="fill:#554432;" d="M174.796,194.762c1.284-0.646,2.661-1.124,4.138-1.424c1.47-0.303,2.936-0.439,4.39-0.418
		c1.454,0.028,2.871,0.207,4.241,0.542c1.376,0.339,2.623,0.832,3.748,1.481c2.293,1.324,3.509,2.88,3.643,4.656
		c0.134,1.785-0.911,3.443-3.15,4.981L174.796,194.762 M197.467,191.511c-2.664-1.538-5.535-2.661-8.588-3.372
		c-3.066-0.711-6.117-1.049-9.172-1.014c-3.049,0.04-6.004,0.424-8.84,1.156c-2.842,0.736-5.423,1.777-7.745,3.126
		c-2.235,1.299-3.97,2.773-5.181,4.421c-1.223,1.649-1.841,3.354-1.875,5.107c-0.033,1.76,0.575,3.511,1.81,5.256
		c1.236,1.745,3.161,3.376,5.788,4.892c3.671,2.119,7.628,3.479,11.869,4.078c4.241,0.607,8.209,0.528,11.901-0.214l-5.199-5.306
		c-1.87,0.457-3.946,0.489-6.234,0.107c-2.287-0.389-4.263-1.06-5.932-2.023c-1.088-0.628-1.943-1.334-2.568-2.131
		c-0.627-0.796-0.988-1.624-1.073-2.491c-0.085-0.867,0.113-1.735,0.607-2.602c0.494-0.867,1.321-1.705,2.474-2.527l25.328,14.623
		c0.418-0.143,0.885-0.357,1.408-0.631c0.516-0.278,1.044-0.571,1.584-0.885c2.192-1.274,3.915-2.726,5.181-4.35
		c1.254-1.624,1.91-3.308,1.961-5.056c0.052-1.741-0.518-3.486-1.712-5.235C202.063,194.698,200.138,193.053,197.467,191.511"/>
	<path style="fill:#554432;" d="M240.224,202.02l-8.381-4.839l-37.837,21.988c-2.573,1.495-3.827,3.062-3.781,4.696
		c0.052,1.637,1.392,3.215,4.019,4.731c1.211,0.699,2.713,1.395,4.503,2.095c1.79,0.699,3.518,1.213,5.184,1.549l5.212-4.332
		c-0.795-0.167-1.579-0.378-2.345-0.628c-0.771-0.253-1.401-0.525-1.902-0.814c-1.088-0.628-1.59-1.302-1.509-2.023
		c0.076-0.724,0.719-1.435,1.916-2.131L240.224,202.02"/>
	<path style="fill:#554432;" d="M254.692,224.55c-2.67-1.541-5.529-2.658-8.563-3.357c-3.041-0.696-6.074-1.031-9.104-1.009
		c-3.037,0.025-5.968,0.396-8.785,1.117c-2.823,0.724-5.374,1.748-7.652,3.072c-2.235,1.299-3.97,2.78-5.211,4.439
		c-1.235,1.662-1.879,3.376-1.93,5.145c-0.051,1.77,0.525,3.533,1.742,5.288c1.211,1.76,3.155,3.408,5.824,4.95
		c3.628,2.095,7.516,3.429,11.684,4.007c4.156,0.578,8.035,0.471,11.648-0.325l-5.702-6.173c-1.575,0.335-3.38,0.353-5.39,0.053
		c-2.022-0.3-3.782-0.888-5.277-1.752c-1.168-0.674-2.041-1.448-2.607-2.33c-0.565-0.875-0.798-1.791-0.699-2.744
		s0.519-1.906,1.265-2.869c0.734-0.963,1.832-1.866,3.28-2.708c1.449-0.842,2.998-1.485,4.641-1.931
		c1.636-0.449,3.267-0.696,4.887-0.742c1.62-0.046,3.191,0.093,4.708,0.414c1.517,0.328,2.882,0.838,4.093,1.538
		c1.416,0.817,2.388,1.748,2.911,2.797c0.524,1.049,0.542,2.126,0.049,3.229l10.682,3.286c1.226-2.166,1.349-4.421,0.363-6.769
		C260.563,228.828,258.277,226.619,254.692,224.55"/>
	<path style="fill:#554432;" d="M262.933,260.188c-1.211-0.699-2.102-1.485-2.669-2.366c-0.565-0.875-0.798-1.791-0.699-2.744
		c0.099-0.953,0.519-1.891,1.265-2.833c0.74-0.938,1.838-1.827,3.287-2.669c1.406-0.817,2.93-1.452,4.573-1.899
		c1.636-0.442,3.274-0.699,4.917-0.76c1.638-0.057,3.235,0.068,4.77,0.378c1.536,0.318,2.912,0.82,4.123,1.52
		c1.205,0.696,2.097,1.488,2.662,2.363c0.565,0.881,0.792,1.795,0.699,2.744c-0.099,0.953-0.531,1.906-1.289,2.855
		c-0.765,0.953-1.851,1.834-3.262,2.655c-1.449,0.842-2.992,1.488-4.628,1.93c-1.643,0.446-3.28,0.696-4.924,0.757
		s-3.223-0.068-4.74-0.396C265.502,261.401,264.137,260.883,262.933,260.188 M289.588,244.697c-2.67-1.541-5.529-2.658-8.563-3.357
		c-3.041-0.696-6.074-1.024-9.104-0.974c-3.03,0.05-5.96,0.436-8.778,1.156c-2.83,0.721-5.38,1.745-7.658,3.069
		c-2.235,1.299-3.976,2.769-5.206,4.406c-1.241,1.637-1.891,3.333-1.968,5.089c-0.076,1.755,0.494,3.515,1.712,5.271
		c1.211,1.76,3.155,3.408,5.824,4.95c2.663,1.538,5.516,2.658,8.557,3.354c3.041,0.703,6.062,1.017,9.079,0.96
		c3.011-0.061,5.924-0.449,8.747-1.174c2.817-0.721,5.35-1.735,7.585-3.033c2.278-1.324,4.038-2.805,5.279-4.443
		c1.235-1.634,1.891-3.332,1.968-5.089c0.07-1.76-0.494-3.508-1.687-5.256C294.183,247.884,292.251,246.235,289.588,244.697"/>
	<path style="fill:#554432;" d="M353.439,281.561c-2.627-1.516-5.559-2.519-8.777-3.011c-3.225-0.496-6.619-0.479-10.195,0.053
		c1.527-1.374,2.208-2.88,2.032-4.517c-0.169-1.634-1.632-3.248-4.389-4.839c-2.707-1.563-5.689-2.623-8.932-3.172
		c-3.243-0.557-6.527-0.567-9.85-0.039l6.024-3.501l-7.565-4.368l-32.556,18.919l8.381,4.839l19.017-11.051
		c2.651-0.817,5.341-1.163,8.065-1.028c2.718,0.132,4.895,0.671,6.52,1.609c1.582,0.913,2.229,1.977,1.922,3.193
		c-0.307,1.216-1.766,2.58-4.375,4.096l-18.267,10.615l8.381,4.839l18.949-11.012c2.656-0.82,5.347-1.174,8.07-1.067
		c2.723,0.107,4.913,0.646,6.582,1.609c1.582,0.913,2.229,1.977,1.922,3.193c-0.307,1.216-1.76,2.583-4.37,4.1l-18.267,10.615
		l8.375,4.835l20.319-11.808c1.572-0.913,2.99-1.894,4.259-2.94c1.257-1.046,2.138-2.123,2.631-3.233
		c0.487-1.107,0.462-2.252-0.087-3.429C356.71,283.884,355.441,282.717,353.439,281.561"/>
	<path style="fill:#554432;" d="M363.16,303.513c1.278-0.65,2.661-1.124,4.138-1.424c1.47-0.303,2.936-0.439,4.39-0.418
		c1.447,0.025,2.865,0.204,4.241,0.542c1.37,0.335,2.623,0.832,3.747,1.481c2.293,1.324,3.503,2.876,3.643,4.656
		c0.134,1.784-0.917,3.44-3.15,4.981L363.16,303.513 M385.83,300.263c-2.67-1.541-5.535-2.661-8.595-3.375
		c-3.06-0.706-6.111-1.045-9.166-1.009c-3.055,0.036-6.004,0.424-8.84,1.156c-2.848,0.731-5.429,1.773-7.75,3.122
		c-2.235,1.299-3.964,2.776-5.174,4.425c-1.223,1.649-1.847,3.351-1.875,5.107c-0.033,1.76,0.575,3.511,1.81,5.256
		c1.236,1.745,3.161,3.375,5.788,4.892c3.671,2.119,7.628,3.479,11.869,4.078c4.236,0.603,8.209,0.528,11.901-0.214l-5.205-5.309
		c-1.864,0.461-3.94,0.492-6.228,0.111c-2.287-0.389-4.27-1.064-5.932-2.023c-1.088-0.628-1.941-1.334-2.568-2.131
		c-0.627-0.796-0.988-1.624-1.073-2.491c-0.091-0.87,0.113-1.735,0.607-2.602c0.494-0.867,1.315-1.709,2.474-2.527l25.328,14.623
		c0.418-0.143,0.885-0.357,1.401-0.635c0.522-0.275,1.05-0.567,1.59-0.881c2.192-1.274,3.915-2.726,5.174-4.353
		c1.26-1.62,1.91-3.308,1.968-5.053c0.046-1.745-0.525-3.49-1.712-5.235C390.426,303.45,388.5,301.804,385.83,300.263"/>
</g>
<g>
</g>
<g>
</g>
<g>
</g>
<g>
</g>
<g>
</g>
<g>
</g>
<g>
</g>
<g>
</g>
<g>
</g>
<g>
</g>
<g>
</g>
<g>
</g>
<g>
</g>
<g>
</g>
<g>
</g>
</svg>
